<svg xmlns="http://www.w3.org/2000/svg" xmlns:xlink="http://www.w3.org/1999/xlink" width="500" zoomAndPan="magnify" viewBox="0 0 375 374.999991" height="500" preserveAspectRatio="xMidYMid meet" version="1.0"><defs><g/></defs><rect x="-37.5" width="450" fill="#ffffff" y="-37.499999" height="449.999989" fill-opacity="1"/><rect x="-37.5" width="450" fill="#ffffff" y="-37.499999" height="449.999989" fill-opacity="1"/><g fill="#ffffff" fill-opacity="1"><g transform="translate(30.520968, 226.003488)"><g><path d="M 17.203125 0.265625 C 16.253906 0.0859375 15.25 -0.0390625 14.1875 -0.125 C 13.125 -0.21875 11.820312 -0.265625 10.28125 -0.265625 C 8.800781 -0.265625 7.546875 -0.21875 6.515625 -0.125 C 5.484375 -0.0390625 4.523438 0.0546875 3.640625 0.171875 C 2.867188 0.296875 2.273438 0.148438 1.859375 -0.265625 C 1.441406 -0.679688 1.320312 -1.300781 1.5 -2.125 C 1.800781 -3.84375 2.15625 -6.160156 2.5625 -9.078125 C 2.976562 -12.003906 3.347656 -15.359375 3.671875 -19.140625 C 4.003906 -22.929688 4.171875 -26.894531 4.171875 -31.03125 C 4.171875 -35.164062 4.003906 -39.125 3.671875 -42.90625 C 3.347656 -46.6875 2.976562 -50.066406 2.5625 -53.046875 C 2.15625 -56.035156 1.800781 -58.359375 1.5 -60.015625 C 1.144531 -61.734375 1.859375 -62.503906 3.640625 -62.328125 C 5.648438 -62.085938 7.40625 -61.992188 8.90625 -62.046875 C 10.414062 -62.109375 11.984375 -62.226562 13.609375 -62.40625 C 15.234375 -62.59375 17.171875 -62.6875 19.421875 -62.6875 C 24.503906 -62.6875 28.550781 -61.738281 31.5625 -59.84375 C 34.570312 -57.945312 36.726562 -55.195312 38.03125 -51.59375 C 39.332031 -47.988281 39.984375 -43.617188 39.984375 -38.484375 C 39.984375 -33.984375 39.171875 -29.898438 37.546875 -26.234375 C 35.921875 -22.578125 33.554688 -19.65625 30.453125 -17.46875 C 27.347656 -15.28125 23.550781 -14.15625 19.0625 -14.09375 L 17.640625 -14.09375 C 17.929688 -11.5 18.238281 -9.164062 18.5625 -7.09375 C 18.894531 -5.019531 19.179688 -3.363281 19.421875 -2.125 C 19.710938 -0.351562 18.972656 0.441406 17.203125 0.265625 Z M 16.84375 -25 L 19.0625 -25 C 21.664062 -25.0625 23.734375 -26.195312 25.265625 -28.40625 C 26.804688 -30.625 27.578125 -33.710938 27.578125 -37.671875 C 27.578125 -42.285156 27.085938 -45.816406 26.109375 -48.265625 C 25.128906 -50.722656 23.695312 -51.953125 21.8125 -51.953125 C 20.394531 -51.953125 19.34375 -51.164062 18.65625 -49.59375 C 17.976562 -48.03125 17.519531 -46.273438 17.28125 -44.328125 C 17.101562 -42.253906 16.957031 -40.09375 16.84375 -37.84375 C 16.726562 -35.601562 16.671875 -33.332031 16.671875 -31.03125 C 16.671875 -30.019531 16.679688 -29.015625 16.703125 -28.015625 C 16.734375 -27.015625 16.78125 -26.007812 16.84375 -25 Z M 16.84375 -25 "/></g></g></g><g fill="#ffffff" fill-opacity="1"><g transform="translate(71.037029, 226.003488)"><g><path d="M 3.8125 0.171875 C 2.09375 0.472656 1.320312 -0.265625 1.5 -2.046875 C 1.738281 -3.753906 2.035156 -6.082031 2.390625 -9.03125 C 2.742188 -11.988281 3.050781 -15.359375 3.3125 -19.140625 C 3.582031 -22.929688 3.71875 -26.894531 3.71875 -31.03125 C 3.84375 -35.34375 3.785156 -39.390625 3.546875 -43.171875 C 3.304688 -46.953125 3.007812 -50.289062 2.65625 -53.1875 C 2.300781 -56.082031 1.976562 -58.332031 1.6875 -59.9375 C 1.332031 -61.769531 2.039062 -62.535156 3.8125 -62.234375 C 4.582031 -62.171875 5.425781 -62.09375 6.34375 -62 C 7.257812 -61.914062 8.363281 -61.875 9.65625 -61.875 C 11.082031 -61.875 12.265625 -61.914062 13.203125 -62 C 14.148438 -62.09375 15.039062 -62.203125 15.875 -62.328125 C 16.695312 -62.441406 17.316406 -62.289062 17.734375 -61.875 C 18.148438 -61.46875 18.265625 -60.847656 18.078125 -60.015625 C 17.847656 -58.359375 17.539062 -56.082031 17.15625 -53.1875 C 16.769531 -50.289062 16.441406 -46.953125 16.171875 -43.171875 C 15.910156 -39.390625 15.835938 -35.34375 15.953125 -31.03125 C 15.953125 -26.894531 16.082031 -22.929688 16.34375 -19.140625 C 16.613281 -15.359375 16.925781 -11.988281 17.28125 -9.03125 C 17.632812 -6.082031 17.929688 -3.753906 18.171875 -2.046875 C 18.472656 -0.265625 17.734375 0.472656 15.953125 0.171875 C 15.066406 0.0546875 14.148438 -0.0390625 13.203125 -0.125 C 12.265625 -0.21875 11.082031 -0.265625 9.65625 -0.265625 C 8.363281 -0.265625 7.257812 -0.21875 6.34375 -0.125 C 5.425781 -0.0390625 4.582031 0.0546875 3.8125 0.171875 Z M 3.8125 0.171875 "/></g></g></g><g fill="#ffffff" fill-opacity="1"><g transform="translate(90.807448, 226.003488)"><g><path d="M 12.859375 1.15625 C 8.773438 1.15625 5.785156 -0.867188 3.890625 -4.921875 C 2.003906 -8.972656 1.003906 -14.8125 0.890625 -22.4375 C 0.890625 -25.269531 1.171875 -28.070312 1.734375 -30.84375 C 2.296875 -33.625 3.117188 -36.164062 4.203125 -38.46875 C 5.296875 -40.78125 6.65625 -42.628906 8.28125 -44.015625 C 9.914062 -45.398438 11.796875 -46.09375 13.921875 -46.09375 C 15.984375 -46.09375 17.753906 -45.617188 19.234375 -44.671875 C 20.710938 -43.734375 21.925781 -42.613281 22.875 -41.3125 L 22.703125 -42.109375 C 22.523438 -42.941406 22.640625 -43.578125 23.046875 -44.015625 C 23.460938 -44.460938 24.054688 -44.625 24.828125 -44.5 C 26.242188 -44.269531 28.191406 -44.15625 30.671875 -44.15625 C 32.035156 -44.15625 33.1875 -44.179688 34.125 -44.234375 C 35.070312 -44.296875 35.988281 -44.359375 36.875 -44.421875 C 38.59375 -44.597656 39.273438 -43.828125 38.921875 -42.109375 C 38.503906 -40.097656 38.046875 -37.316406 37.546875 -33.765625 C 37.046875 -30.222656 36.796875 -26.351562 36.796875 -22.15625 C 36.796875 -18.019531 37.046875 -14.148438 37.546875 -10.546875 C 38.046875 -6.941406 38.503906 -4.164062 38.921875 -2.21875 C 39.273438 -0.5 38.59375 0.269531 36.875 0.09375 C 35.988281 -0.03125 35.070312 -0.101562 34.125 -0.125 C 33.1875 -0.15625 32.035156 -0.171875 30.671875 -0.171875 C 29.367188 -0.171875 28.273438 -0.15625 27.390625 -0.125 C 26.503906 -0.101562 25.648438 -0.03125 24.828125 0.09375 C 23.992188 0.207031 23.398438 0.046875 23.046875 -0.390625 C 22.691406 -0.835938 22.632812 -1.476562 22.875 -2.3125 C 23.050781 -3.019531 23.242188 -3.859375 23.453125 -4.828125 C 23.660156 -5.804688 23.820312 -6.859375 23.9375 -7.984375 C 23.644531 -6.921875 23.140625 -5.664062 22.421875 -4.21875 C 21.710938 -2.769531 20.601562 -1.507812 19.09375 -0.4375 C 17.59375 0.625 15.515625 1.15625 12.859375 1.15625 Z M 24.03125 -11.609375 L 24.03125 -22.515625 C 24.03125 -26.003906 23.597656 -28.859375 22.734375 -31.078125 C 21.878906 -33.296875 20.535156 -34.40625 18.703125 -34.40625 C 17.171875 -34.40625 15.914062 -33.234375 14.9375 -30.890625 C 13.957031 -28.554688 13.441406 -25.738281 13.390625 -22.4375 C 13.441406 -19.125 14.015625 -16.476562 15.109375 -14.5 C 16.203125 -12.519531 17.546875 -11.273438 19.140625 -10.765625 C 20.742188 -10.265625 22.375 -10.546875 24.03125 -11.609375 Z M 24.03125 -11.609375 "/></g></g></g><g fill="#ffffff" fill-opacity="1"><g transform="translate(130.791566, 226.003488)"><g><path d="M 16.75 0.171875 C 15.039062 -0.0546875 12.859375 -0.171875 10.203125 -0.171875 C 8.898438 -0.171875 7.742188 -0.15625 6.734375 -0.125 C 5.734375 -0.101562 4.816406 -0.03125 3.984375 0.09375 C 2.328125 0.269531 1.648438 -0.46875 1.953125 -2.125 C 2.304688 -4.070312 2.71875 -6.863281 3.1875 -10.5 C 3.664062 -14.132812 3.90625 -18.019531 3.90625 -22.15625 C 3.90625 -26.351562 3.664062 -30.238281 3.1875 -33.8125 C 2.71875 -37.394531 2.304688 -40.160156 1.953125 -42.109375 C 1.648438 -43.828125 2.328125 -44.597656 3.984375 -44.421875 C 4.816406 -44.359375 5.734375 -44.296875 6.734375 -44.234375 C 7.742188 -44.179688 8.898438 -44.15625 10.203125 -44.15625 C 11.554688 -44.15625 12.675781 -44.179688 13.5625 -44.234375 C 14.445312 -44.296875 15.304688 -44.382812 16.140625 -44.5 C 17.847656 -44.675781 18.554688 -43.878906 18.265625 -42.109375 L 17.734375 -39.359375 C 18.554688 -40.898438 19.820312 -42.40625 21.53125 -43.875 C 23.25 -45.351562 25.617188 -46.09375 28.640625 -46.09375 C 30.703125 -46.09375 32.585938 -45.351562 34.296875 -43.875 C 36.015625 -42.40625 37.390625 -39.925781 38.421875 -36.4375 C 39.460938 -32.945312 39.984375 -28.128906 39.984375 -21.984375 C 39.984375 -17.847656 40.21875 -13.988281 40.6875 -10.40625 C 41.164062 -6.832031 41.582031 -4.070312 41.9375 -2.125 C 42.226562 -0.414062 41.546875 0.347656 39.890625 0.171875 C 38.179688 -0.0546875 35.992188 -0.171875 33.328125 -0.171875 C 31.972656 -0.171875 30.820312 -0.15625 29.875 -0.125 C 28.925781 -0.101562 28.007812 -0.03125 27.125 0.09375 C 25.351562 0.269531 24.675781 -0.5 25.09375 -2.21875 C 25.914062 -5.53125 26.535156 -8.820312 26.953125 -12.09375 C 27.367188 -15.375 27.601562 -18.671875 27.65625 -21.984375 C 27.65625 -25.296875 27.375 -27.851562 26.8125 -29.65625 C 26.25 -31.457031 25.554688 -32.710938 24.734375 -33.421875 C 23.910156 -34.128906 23.050781 -34.484375 22.15625 -34.484375 C 21.15625 -34.484375 20.253906 -34.066406 19.453125 -33.234375 C 18.660156 -32.410156 18.023438 -31.378906 17.546875 -30.140625 C 17.078125 -28.898438 16.722656 -27.660156 16.484375 -26.421875 L 16.21875 -22.15625 C 16.21875 -18.019531 16.523438 -14.148438 17.140625 -10.546875 C 17.765625 -6.941406 18.285156 -4.164062 18.703125 -2.21875 C 18.941406 -1.445312 18.882812 -0.835938 18.53125 -0.390625 C 18.175781 0.046875 17.582031 0.234375 16.75 0.171875 Z M 16.75 0.171875 "/></g></g></g><g fill="#ffffff" fill-opacity="1"><g transform="translate(173.79002, 226.003488)"><g><path d="M 20.125 0.265625 C 18.46875 0.0234375 16.28125 -0.09375 13.5625 -0.09375 C 12.207031 -0.09375 11.039062 -0.078125 10.0625 -0.046875 C 9.082031 -0.015625 8.179688 0.0546875 7.359375 0.171875 C 5.585938 0.347656 4.847656 -0.390625 5.140625 -2.046875 C 5.429688 -3.691406 5.769531 -5.914062 6.15625 -8.71875 C 6.539062 -11.53125 6.878906 -14.578125 7.171875 -17.859375 C 7.472656 -21.140625 7.625 -24.257812 7.625 -27.21875 C 7.625 -28.394531 7.59375 -29.632812 7.53125 -30.9375 C 7.476562 -32.238281 7.390625 -33.539062 7.265625 -34.84375 L 4.078125 -34.578125 C 2.421875 -34.460938 1.679688 -35.226562 1.859375 -36.875 C 1.921875 -37.40625 1.953125 -37.9375 1.953125 -38.46875 C 1.953125 -39.007812 1.953125 -39.570312 1.953125 -40.15625 C 1.953125 -40.75 1.953125 -41.3125 1.953125 -41.84375 C 1.953125 -42.375 1.921875 -42.90625 1.859375 -43.4375 C 1.679688 -45.15625 2.421875 -45.925781 4.078125 -45.75 L 6.203125 -45.5625 C 6.023438 -47.394531 5.816406 -49.066406 5.578125 -50.578125 C 5.347656 -52.085938 5.171875 -53.34375 5.046875 -54.34375 C 4.867188 -56 5.640625 -56.738281 7.359375 -56.5625 C 8.179688 -56.5 9.082031 -56.4375 10.0625 -56.375 C 11.039062 -56.320312 12.207031 -56.296875 13.5625 -56.296875 C 14.976562 -56.296875 16.128906 -56.320312 17.015625 -56.375 C 17.910156 -56.4375 18.769531 -56.53125 19.59375 -56.65625 C 20.414062 -56.769531 21.035156 -56.617188 21.453125 -56.203125 C 21.867188 -55.796875 22.015625 -55.207031 21.890625 -54.4375 C 21.773438 -53.375 21.628906 -52.085938 21.453125 -50.578125 C 21.273438 -49.066406 21.097656 -47.394531 20.921875 -45.5625 L 23.40625 -45.75 C 25.0625 -45.925781 25.800781 -45.15625 25.625 -43.4375 C 25.5625 -42.90625 25.53125 -42.375 25.53125 -41.84375 C 25.53125 -41.3125 25.53125 -40.75 25.53125 -40.15625 C 25.53125 -39.570312 25.53125 -39.007812 25.53125 -38.46875 C 25.53125 -37.9375 25.5625 -37.40625 25.625 -36.875 C 25.800781 -35.226562 25.0625 -34.460938 23.40625 -34.578125 L 20.125 -34.84375 C 19.945312 -32.1875 19.859375 -29.644531 19.859375 -27.21875 C 19.859375 -24.257812 20.003906 -21.140625 20.296875 -17.859375 C 20.597656 -14.578125 20.953125 -11.53125 21.359375 -8.71875 C 21.773438 -5.914062 22.101562 -3.691406 22.34375 -2.046875 C 22.632812 -0.328125 21.894531 0.441406 20.125 0.265625 Z M 20.125 0.265625 "/></g></g></g><g fill="#ffffff" fill-opacity="1"><g transform="translate(201.273572, 226.003488)"><g><path d="M 21.546875 1.765625 C 17.054688 1.765625 13.269531 0.660156 10.1875 -1.546875 C 7.113281 -3.765625 4.796875 -6.691406 3.234375 -10.328125 C 1.671875 -13.960938 0.890625 -17.878906 0.890625 -22.078125 C 0.890625 -26.453125 1.671875 -30.441406 3.234375 -34.046875 C 4.796875 -37.648438 7.113281 -40.546875 10.1875 -42.734375 C 13.269531 -44.921875 17.054688 -46.015625 21.546875 -46.015625 C 26.097656 -46.015625 29.894531 -44.90625 32.9375 -42.6875 C 35.976562 -40.46875 38.28125 -37.539062 39.84375 -33.90625 C 41.414062 -30.269531 42.203125 -26.328125 42.203125 -22.078125 C 42.203125 -17.816406 41.414062 -13.867188 39.84375 -10.234375 C 38.28125 -6.597656 35.976562 -3.6875 32.9375 -1.5 C 29.894531 0.675781 26.097656 1.765625 21.546875 1.765625 Z M 21.546875 -8.6875 C 23.429688 -8.6875 24.953125 -9.984375 26.109375 -12.578125 C 27.265625 -15.179688 27.84375 -18.4375 27.84375 -22.34375 C 27.84375 -26.59375 27.265625 -29.957031 26.109375 -32.4375 C 24.953125 -34.925781 23.429688 -36.171875 21.546875 -36.171875 C 19.597656 -36.171875 18.0625 -34.957031 16.9375 -32.53125 C 15.8125 -30.113281 15.25 -26.71875 15.25 -22.34375 C 15.25 -18.320312 15.8125 -15.039062 16.9375 -12.5 C 18.0625 -9.957031 19.597656 -8.6875 21.546875 -8.6875 Z M 21.546875 -8.6875 "/></g></g></g><g fill="#ffffff" fill-opacity="1"><g transform="translate(244.360687, 226.003488)"><g><path d="M 2.65625 17.90625 C 0.945312 18.207031 0.238281 17.46875 0.53125 15.6875 C 0.820312 13.976562 1.144531 11.644531 1.5 8.6875 C 1.863281 5.726562 2.175781 2.359375 2.4375 -1.421875 C 2.707031 -5.203125 2.84375 -9.160156 2.84375 -13.296875 C 2.84375 -17.429688 2.707031 -21.390625 2.4375 -25.171875 C 2.175781 -28.960938 1.863281 -32.332031 1.5 -35.28125 C 1.144531 -38.238281 0.820312 -40.546875 0.53125 -42.203125 C 0.238281 -44.035156 0.945312 -44.800781 2.65625 -44.5 C 3.539062 -44.382812 4.472656 -44.28125 5.453125 -44.1875 C 6.429688 -44.101562 7.597656 -44.0625 8.953125 -44.0625 C 10.316406 -44.0625 11.5 -44.101562 12.5 -44.1875 C 13.5 -44.28125 14.472656 -44.414062 15.421875 -44.59375 C 17.191406 -44.769531 17.988281 -44.207031 17.8125 -42.90625 C 17.695312 -42.488281 17.582031 -41.835938 17.46875 -40.953125 C 18.46875 -42.316406 19.8125 -43.546875 21.5 -44.640625 C 23.1875 -45.734375 25.328125 -46.28125 27.921875 -46.28125 C 31.234375 -46.28125 33.878906 -44.164062 35.859375 -39.9375 C 37.835938 -35.707031 38.828125 -29.960938 38.828125 -22.703125 C 38.828125 -19.804688 38.617188 -16.921875 38.203125 -14.046875 C 37.796875 -11.179688 37.132812 -8.566406 36.21875 -6.203125 C 35.300781 -3.835938 34.039062 -1.945312 32.4375 -0.53125 C 30.84375 0.882812 28.894531 1.59375 26.59375 1.59375 C 24.050781 1.59375 21.984375 0.988281 20.390625 -0.21875 C 18.796875 -1.4375 17.582031 -2.828125 16.75 -4.390625 C 15.925781 -5.953125 15.335938 -7.265625 14.984375 -8.328125 C 15.097656 -3.066406 15.375 1.71875 15.8125 6.03125 C 16.257812 10.34375 16.601562 13.59375 16.84375 15.78125 C 17.019531 17.5 16.28125 18.207031 14.625 17.90625 C 13.851562 17.789062 13.054688 17.6875 12.234375 17.59375 C 11.410156 17.507812 10.316406 17.46875 8.953125 17.46875 C 7.597656 17.46875 6.429688 17.507812 5.453125 17.59375 C 4.472656 17.6875 3.539062 17.789062 2.65625 17.90625 Z M 15.6875 -22.78125 L 15.6875 -11.796875 C 17.34375 -11.023438 18.984375 -10.890625 20.609375 -11.390625 C 22.234375 -11.890625 23.578125 -13.070312 24.640625 -14.9375 C 25.710938 -16.800781 26.273438 -19.390625 26.328125 -22.703125 C 26.273438 -26.003906 25.757812 -28.820312 24.78125 -31.15625 C 23.800781 -33.5 22.546875 -34.671875 21.015625 -34.671875 C 19.242188 -34.671875 17.910156 -33.546875 17.015625 -31.296875 C 16.128906 -29.046875 15.6875 -26.207031 15.6875 -22.78125 Z M 15.6875 -22.78125 "/></g></g></g><g fill="#ffffff" fill-opacity="1"><g transform="translate(284.078848, 226.003488)"><g><path d="M 10.28125 -48.84375 C 7.863281 -48.84375 5.796875 -49.6875 4.078125 -51.375 C 2.359375 -53.0625 1.5 -55.113281 1.5 -57.53125 C 1.5 -59.957031 2.359375 -62.007812 4.078125 -63.6875 C 5.796875 -65.375 7.863281 -66.21875 10.28125 -66.21875 C 12.707031 -66.21875 14.757812 -65.375 16.4375 -63.6875 C 18.125 -62.007812 18.96875 -59.957031 18.96875 -57.53125 C 18.96875 -55.164062 18.125 -53.125 16.4375 -51.40625 C 14.757812 -49.695312 12.707031 -48.84375 10.28125 -48.84375 Z M 16.484375 0.359375 C 14.828125 0.117188 12.671875 0 10.015625 0 C 8.660156 0 7.507812 0.015625 6.5625 0.046875 C 5.613281 0.078125 4.726562 0.148438 3.90625 0.265625 C 2.125 0.441406 1.410156 -0.296875 1.765625 -1.953125 C 2.179688 -3.960938 2.671875 -6.769531 3.234375 -10.375 C 3.796875 -13.976562 4.078125 -17.847656 4.078125 -21.984375 C 4.078125 -26.117188 3.796875 -29.972656 3.234375 -33.546875 C 2.671875 -37.128906 2.179688 -39.894531 1.765625 -41.84375 C 1.410156 -43.675781 2.125 -44.445312 3.90625 -44.15625 C 4.726562 -44.09375 5.613281 -44.03125 6.5625 -43.96875 C 7.507812 -43.914062 8.660156 -43.890625 10.015625 -43.890625 C 12.554688 -43.890625 14.535156 -44.035156 15.953125 -44.328125 C 16.785156 -44.441406 17.394531 -44.273438 17.78125 -43.828125 C 18.164062 -43.390625 18.296875 -42.757812 18.171875 -41.9375 C 17.816406 -39.988281 17.414062 -37.207031 16.96875 -33.59375 C 16.53125 -29.988281 16.3125 -26.117188 16.3125 -21.984375 C 16.3125 -17.734375 16.59375 -13.832031 17.15625 -10.28125 C 17.71875 -6.738281 18.207031 -3.960938 18.625 -1.953125 C 18.976562 -0.234375 18.265625 0.535156 16.484375 0.359375 Z M 16.484375 0.359375 "/></g></g></g><g fill="#ffffff" fill-opacity="1"><g transform="translate(304.469871, 226.003488)"><g><path d="M 12.859375 1.15625 C 8.773438 1.15625 5.785156 -0.867188 3.890625 -4.921875 C 2.003906 -8.972656 1.003906 -14.8125 0.890625 -22.4375 C 0.890625 -25.269531 1.171875 -28.070312 1.734375 -30.84375 C 2.296875 -33.625 3.117188 -36.164062 4.203125 -38.46875 C 5.296875 -40.78125 6.65625 -42.628906 8.28125 -44.015625 C 9.914062 -45.398438 11.796875 -46.09375 13.921875 -46.09375 C 15.984375 -46.09375 17.753906 -45.617188 19.234375 -44.671875 C 20.710938 -43.734375 21.925781 -42.613281 22.875 -41.3125 L 22.703125 -42.109375 C 22.523438 -42.941406 22.640625 -43.578125 23.046875 -44.015625 C 23.460938 -44.460938 24.054688 -44.625 24.828125 -44.5 C 26.242188 -44.269531 28.191406 -44.15625 30.671875 -44.15625 C 32.035156 -44.15625 33.1875 -44.179688 34.125 -44.234375 C 35.070312 -44.296875 35.988281 -44.359375 36.875 -44.421875 C 38.59375 -44.597656 39.273438 -43.828125 38.921875 -42.109375 C 38.503906 -40.097656 38.046875 -37.316406 37.546875 -33.765625 C 37.046875 -30.222656 36.796875 -26.351562 36.796875 -22.15625 C 36.796875 -18.019531 37.046875 -14.148438 37.546875 -10.546875 C 38.046875 -6.941406 38.503906 -4.164062 38.921875 -2.21875 C 39.273438 -0.5 38.59375 0.269531 36.875 0.09375 C 35.988281 -0.03125 35.070312 -0.101562 34.125 -0.125 C 33.1875 -0.15625 32.035156 -0.171875 30.671875 -0.171875 C 29.367188 -0.171875 28.273438 -0.15625 27.390625 -0.125 C 26.503906 -0.101562 25.648438 -0.03125 24.828125 0.09375 C 23.992188 0.207031 23.398438 0.046875 23.046875 -0.390625 C 22.691406 -0.835938 22.632812 -1.476562 22.875 -2.3125 C 23.050781 -3.019531 23.242188 -3.859375 23.453125 -4.828125 C 23.660156 -5.804688 23.820312 -6.859375 23.9375 -7.984375 C 23.644531 -6.921875 23.140625 -5.664062 22.421875 -4.21875 C 21.710938 -2.769531 20.601562 -1.507812 19.09375 -0.4375 C 17.59375 0.625 15.515625 1.15625 12.859375 1.15625 Z M 24.03125 -11.609375 L 24.03125 -22.515625 C 24.03125 -26.003906 23.597656 -28.859375 22.734375 -31.078125 C 21.878906 -33.296875 20.535156 -34.40625 18.703125 -34.40625 C 17.171875 -34.40625 15.914062 -33.234375 14.9375 -30.890625 C 13.957031 -28.554688 13.441406 -25.738281 13.390625 -22.4375 C 13.441406 -19.125 14.015625 -16.476562 15.109375 -14.5 C 16.203125 -12.519531 17.546875 -11.273438 19.140625 -10.765625 C 20.742188 -10.265625 22.375 -10.546875 24.03125 -11.609375 Z M 24.03125 -11.609375 "/></g></g></g></svg>